<?xml version="1.0" encoding="UTF-8"?>
<svg id="_레이어_2" data-name="레이어 2" xmlns="http://www.w3.org/2000/svg" viewBox="0 0 237.84 234.6">
  <defs>
    <style>
      .cls-1 {
        fill: white;
      }
    </style>
  </defs>
  <g id="_레이어_1-2" data-name="레이어 1">
    <path class="cls-1" d="m118.92,232.34c7.4-1.25,7.94-13.02,7.94-13.02l33.01,14.63c3.03,1.96,3.39-1.07,3.39-1.07v-4.1c0-2.68-1.43-5-1.43-5l-28.55-29.62,4.28-67.8,95.63,26.05c4.64,1.25,4.64-3.93,4.64-3.93v-8.56c0-5.26-5.35-9.63-5.35-9.63l-93.13-60.66C143.28-3.89,118.92.04,118.92.04c0,0-24.36-3.93-20.43,69.58L5.35,130.28s-5.35,4.37-5.35,9.63v8.56s0,5.17,4.64,3.93l95.63-26.05,4.28,67.8-28.55,29.62s-1.43,2.32-1.43,5v4.1s.36,3.03,3.39,1.07l33.01-14.63s.54,11.78,7.94,13.02Z"/>
  </g>
</svg>