<?xml version="1.0" encoding="UTF-8"?>
<svg id="_레이어_2" data-name="레이어 2" xmlns="http://www.w3.org/2000/svg" viewBox="0 0 1047.79 4304.71">
  <defs>
    <style>
      .cls-1 {
        fill: none;
        stroke: #fff;
        stroke-miterlimit: 10;
        stroke-width: 3px;
      }

      .cls-2 {
        fill: #fff;
      }
    </style>
  </defs>
  <g id="_레이어_2-2" data-name="레이어 2">
    <path class="cls-1" d="m523.89,4304.71v-102.65c0-380.2-349.01-699.56-349.01-699.56-444.83-376.4,250.93-486.65,250.93-486.65,444.83-102.65,557.68-250.93,557.68-250.93,283.93-319.37-486.96-646.34-486.96-646.34-258.91-112.16-314.04-296.55-314.04-296.55C-5.24,1295.45,395.39,1206.1,502.03,1255.07c65,29.84,105.64,109.85,90,179.91-35.06,157.03-234.66,151.32-234.66,151.32-287.05,0-340.67-193.9-340.67-193.9-85.15-285.15,215.21-534.18,215.21-534.18,309.81-245.7,291.98-636.53,291.98-636.53V0"/>
    <g>
      <path class="cls-2" d="m239.51,1492.31l-11.33,2.83-4.93-19.74-16.79,4.2,4.93,19.74-11.4,2.85-11.82-47.28,11.4-2.85,4.69,18.77,16.79-4.2-4.69-18.77,11.33-2.83,11.82,47.28Z"/>
      <path class="cls-2" d="m271.02,1463.11l-17.92,4.48,2.82,11.3,21.17-5.29,2.19,8.77-32.57,8.14-11.82-47.28,32.63-8.16,2.2,8.8-21.24,5.31,2.49,9.97,17.92-4.48,2.11,8.44Z"/>
      <path class="cls-2" d="m293.14,1469.59l19.84-4.96,2.19,8.77-31.24,7.81-11.82-47.28,11.4-2.85,9.63,38.51Z"/>
      <path class="cls-2" d="m329.18,1460.58l19.84-4.96,2.19,8.77-31.24,7.81-11.82-47.28,11.4-2.85,9.63,38.51Z"/>
      <path class="cls-2" d="m388.31,1431.03c1.15,4.61,1.32,8.91.49,12.88-.82,3.98-2.57,7.32-5.24,10.02s-6.02,4.56-10.05,5.56-7.83.97-11.41-.1-6.67-3.11-9.27-6.12c-2.6-3.01-4.51-6.73-5.71-11.17l-.67-2.66c-1.16-4.63-1.33-8.93-.52-12.89.81-3.96,2.57-7.31,5.26-10.02,2.69-2.72,6.06-4.58,10.11-5.6s7.81-.94,11.43.18c3.61,1.12,6.73,3.22,9.36,6.3,2.62,3.08,4.51,6.89,5.67,11.43l.54,2.18Zm-12.09.92c-1.17-4.7-2.85-8.07-5.03-10.11-2.18-2.04-4.73-2.7-7.65-1.97-5.71,1.43-7.66,6.47-5.85,15.12l.84,3.48c1.16,4.63,2.82,8,4.98,10.11,2.16,2.11,4.75,2.78,7.78,2.02s4.79-2.5,5.74-5.33c.95-2.84.86-6.55-.27-11.15l-.54-2.18Z"/>
      <path class="cls-2" d="m423.43,1396.1l11.36-2.84,8.11,32.44c.75,3.01.73,5.87-.08,8.58-.81,2.71-2.3,5.02-4.47,6.95s-4.8,3.27-7.87,4.04c-5.15,1.29-9.48.99-12.99-.89s-5.86-5.21-7.05-9.97l11.43-2.86c.54,2.16,1.31,3.64,2.3,4.43s2.36.96,4.12.52c1.58-.39,2.65-1.29,3.21-2.68.56-1.39.58-3.15.04-5.27l-8.11-32.44Z"/>
      <path class="cls-2" d="m478.09,1411.35l-17.92,4.48,2.82,11.3,21.17-5.29,2.19,8.77-32.57,8.14-11.82-47.28,32.63-8.16,2.2,8.8-21.24,5.31,2.49,9.97,17.92-4.48,2.11,8.44Z"/>
      <path class="cls-2" d="m498.01,1377.46l11.36-2.84,8.11,32.44c.75,3.01.73,5.87-.08,8.58-.81,2.71-2.3,5.02-4.47,6.95s-4.8,3.27-7.87,4.04c-5.15,1.29-9.48.99-12.99-.89s-5.86-5.21-7.05-9.97l11.43-2.86c.54,2.16,1.31,3.64,2.3,4.43s2.36.96,4.12.52c1.58-.39,2.65-1.29,3.21-2.68.56-1.39.58-3.15.04-5.27l-8.11-32.44Z"/>
      <path class="cls-2" d="m553.63,1363.56l7.74,30.94c.88,3.51.89,6.73.04,9.67s-2.51,5.43-4.96,7.47c-2.46,2.04-5.59,3.54-9.4,4.49-5.76,1.44-10.67,1.08-14.73-1.08s-6.77-5.83-8.13-11.01l-7.79-31.17,11.46-2.87,7.85,31.4c1.42,5.14,4.47,7.13,9.15,5.96,2.36-.59,3.98-1.69,4.87-3.29.89-1.6.97-3.86.24-6.79l-7.72-30.88,11.4-2.85Z"/>
    </g>
  </g>
</svg>