<?xml version="1.0" encoding="UTF-8"?>
<svg id="_레이어_2" data-name="레이어 2" xmlns="http://www.w3.org/2000/svg" viewBox="0 0 1102.67 608.74">
  <defs>
    <style>
      .cls-1 {
        /* fill: #ffc000; */
        fill: MediumAquaMarine;
      }
    </style>
  </defs>
  <g id="_레이어_1-2" data-name="레이어 1">
    <path class="cls-1" d="m884.69,15.21s-30.42-34.22-95.05,0c0,0-68.44,28.51-89.35,15.21,0,0-19.01-17.11-60.83,24.71,0,0-17.11,9.5-62.73,0,0,0-15.21-5.7-41.82,17.11,0,0-34.22,15.21-64.63,9.5,0,0-13.31-7.6-60.83,28.51,0,0-32.32,13.31-133.07,26.61,0,0-76.04,17.11-100.75,87.45,0,0-13.31,45.62-70.34,60.83,0,0-39.92,7.6-49.43,53.23l-15.21,20.91s-15.21,15.21-19.01,41.82c0,0,0,15.21-19.01,39.92,0,0-11.41,20.91,13.31,45.62,0,0,28.51,28.51,60.83,36.12,0,0,49.43,3.8,49.43,34.22,0,0-1.9,22.81,36.12,39.92,0,0,41.82,26.61,60.83,0,0,0,3.8-9.5,7.6-36.12,0,0-1.9-28.51,57.03-19.01,0,0,41.82,26.61,70.34,1.9,0,0,30.42-22.81,60.83,0l7.6,17.11s15.21,24.71,47.52,15.21c0,0,51.33-5.7,55.13-34.22,0,0,8.81-43.72,33.87-30.42,0,0,11.76,1.9,28.86,19.01,0,0,36.12,36.12,62.73,20.91,0,0,39.92-15.21,70.34-51.33,0,0,41.82-26.61,96.95-32.32,0,0,38.02-11.41,51.33-34.22,0,0,26.61-20.91,62.73-5.7,0,0,34.22,5.7,41.82-26.61v-24.71s-11.41-11.41,22.81-38.02l41.82-34.01s34.22-23.02,30.42-61.99c0,0,3.8-16.16,17.11-29.47,0,0,28.51-32.32,0-72.24,0,0-15.21-11.41-11.41-26.61,0,0-13.31-47.52-72.24-57.03,0,0-43.72,0-51.33-24.71,0,0-17.11-24.71-38.02-9.5,0,0-11.07,4.63-32.32-7.6Z"/>
  </g>
</svg>