<?xml version="1.0" encoding="UTF-8"?>
<svg id="_레이어_2" data-name="레이어 2" xmlns="http://www.w3.org/2000/svg" viewBox="0 0 462.3 309.71">
  <defs>
    <style>
      .cls-1 {
        fill: #d00;
      }

      .cls-1, .cls-2 {
        stroke: #231815;
        stroke-linecap: round;
        stroke-linejoin: round;
        stroke-width: 10px;
      }

      .cls-2 {
        fill: #edc38c;
      }
    </style>
  </defs>
  <g id="_레이어_1-2" data-name="레이어 1">
    <g>
      <g>
        <path class="cls-2" d="m253.33,82V27.68c0-12.52-10.15-22.68-22.68-22.68s-22.68,10.15-22.68,22.68v54.33"/>
        <path class="cls-2" d="m253.33,82c0,10.17,8.25,18.42,18.42,18.42v181.41H87.68c-12.52,0-22.68-10.15-22.68-22.68s10.15-22.68,22.68-22.68h64.33s-104.33,0-104.33,0c-12.52,0-22.68-10.15-22.68-22.68s10.15-22.68,22.68-22.68h104.33s-124.33,0-124.33,0c-12.52,0-22.68-10.15-22.68-22.68s10.15-22.68,22.68-22.68h124.33s-104.33,0-104.33,0c-12.52,0-22.68-10.15-22.68-22.68s10.15-22.68,22.68-22.68h141.88c10.17,0,18.42-8.25,18.42-18.42"/>
      </g>
      <path class="cls-1" d="m294.63,77.56c-12.63,0-22.87,10.24-22.87,22.87v181.41c0,12.63,10.24,22.87,22.87,22.87h162.67V77.56h-162.67Z"/>
    </g>
  </g>
</svg>